<svg width="50" height="50" viewBox="0 0 50 50" fill="none" xmlns="http://www.w3.org/2000/svg">
<path d="M43.4664 45.5378L36.394 38.4654C35.8218 37.8932 35.8218 36.9661 36.394 36.394C36.9661 35.8218 37.8932 35.8218 38.4654 36.394L45.5378 43.4665C46.11 44.0386 46.11 44.9657 45.5378 45.5378C44.9655 46.11 44.0386 46.11 43.4664 45.5378Z" fill="white"/>
<path d="M11.5346 13.6059L4.46209 6.53347C3.88992 5.9613 3.88992 5.03425 4.46209 4.46208C5.03425 3.88992 5.96131 3.88992 6.53347 4.46208L13.6059 11.5345C14.1781 12.1067 14.1781 13.0338 13.6059 13.6059C13.0338 14.1781 12.1068 14.1782 11.5346 13.6059V13.6059Z" fill="white"/>
<path d="M4.46209 45.5378C3.88992 44.9657 3.88992 44.0386 4.46209 43.4665L11.5346 36.394C12.1067 35.8218 13.0338 35.8218 13.6059 36.394C14.1781 36.9661 14.1781 37.8932 13.6059 38.4654L6.53347 45.5378C5.96131 46.11 5.03435 46.11 4.46209 45.5378V45.5378Z" fill="white"/>
<path d="M36.394 13.6059C35.8218 13.0338 35.8218 12.1067 36.394 11.5345L43.4664 4.46208C44.0386 3.88992 44.9656 3.88992 45.5378 4.46208C46.11 5.03425 46.11 5.9613 45.5378 6.53347L38.4654 13.6059C37.8932 14.1781 36.9661 14.1782 36.394 13.6059V13.6059Z" fill="white"/>
<path d="M31.4945 44.5079L30.373 41.8014C30.0641 41.0547 30.4189 40.1963 31.1655 39.8873C31.9108 39.5798 32.7706 39.9331 33.0796 40.6798L34.2011 43.3864C34.51 44.133 34.1553 44.9914 33.4086 45.3004C32.6631 45.6091 31.8039 45.2559 31.4945 44.5079Z" fill="white"/>
<path d="M16.9206 9.31994L15.7991 6.6134C15.4901 5.86672 15.8449 5.00832 16.5916 4.69934C17.334 4.39182 18.198 4.74514 18.5056 5.49182L19.6271 8.19836C19.9361 8.94504 19.5813 9.80343 18.8346 10.1124C18.0891 10.4211 17.2299 10.0679 16.9206 9.31994Z" fill="white"/>
<path d="M4.69959 33.4085C4.3906 32.6619 4.74539 31.8035 5.49207 31.4945L8.19861 30.373C8.94529 30.064 9.80369 30.4173 10.1127 31.1655C10.4217 31.9122 10.0669 32.7706 9.32019 33.0795L6.61365 34.201C5.86814 34.5097 5.00896 34.1564 4.69959 33.4085Z" fill="white"/>
<path d="M39.8873 18.8345C39.5783 18.0878 39.9331 17.2294 40.6798 16.9204L43.3863 15.7989C44.133 15.4943 44.9914 15.8433 45.3004 16.5914C45.6094 17.3381 45.2546 18.1965 44.5079 18.5055L41.8014 19.627C41.0559 19.9357 40.1968 19.5824 39.8873 18.8345Z" fill="white"/>
<path d="M16.5914 45.3005C15.8448 44.9916 15.49 44.1333 15.799 43.3865L16.9204 40.6799C17.2294 39.9333 18.0877 39.5785 18.8345 39.8875C19.5813 40.1964 19.936 41.0547 19.627 41.8015L18.5055 44.5081C18.1958 45.2565 17.3364 45.609 16.5914 45.3005Z" fill="white"/>
<path d="M31.1655 10.1125C30.4189 9.80352 30.0641 8.94522 30.373 8.19844L31.4945 5.4919C31.8035 4.74376 32.6646 4.39044 33.4086 4.69942C34.1553 5.0084 34.51 5.8667 34.2011 6.61348L33.0796 9.32002C32.7699 10.0685 31.9104 10.4209 31.1655 10.1125Z" fill="white"/>
<path d="M8.19861 19.6271L5.49207 18.5056C4.74539 18.1966 4.3906 17.3383 4.69959 16.5915C5.01004 15.8434 5.87117 15.4929 6.61365 15.7991L9.32019 16.9205C10.0669 17.2295 10.4217 18.0878 10.1127 18.8346C9.803 19.5831 8.94353 19.9356 8.19861 19.6271V19.6271Z" fill="white"/>
<path d="M43.3863 34.2011L40.6798 33.0797C39.9331 32.7707 39.5783 31.9124 39.8873 31.1656C40.1977 30.4175 41.0589 30.0627 41.8014 30.3731L44.5079 31.4946C45.2546 31.8036 45.6094 32.6619 45.3004 33.4087C44.9907 34.1571 44.1314 34.5095 43.3863 34.2011Z" fill="white"/>
<path d="M7.42188 26.4648H1.46484C0.655176 26.4648 0 25.8097 0 25C0 24.1903 0.655176 23.5352 1.46484 23.5352H7.42188C8.23154 23.5352 8.88672 24.1903 8.88672 25C8.88672 25.8097 8.23154 26.4648 7.42188 26.4648Z" fill="white"/>
<path d="M48.5352 26.4648H42.5781C41.7685 26.4648 41.1133 25.8097 41.1133 25C41.1133 24.1903 41.7685 23.5352 42.5781 23.5352H48.5352C49.3448 23.5352 50 24.1903 50 25C50 25.8097 49.3448 26.4648 48.5352 26.4648Z" fill="white"/>
<path d="M25 38.1836C32.2811 38.1836 38.1836 32.2811 38.1836 25C38.1836 17.7189 32.2811 11.8164 25 11.8164C17.7189 11.8164 11.8164 17.7189 11.8164 25C11.8164 32.2811 17.7189 38.1836 25 38.1836Z" fill="white"/>
<path d="M38.1836 25C38.1836 17.7302 32.2698 11.8164 25 11.8164V38.1836C32.2698 38.1836 38.1836 32.2698 38.1836 25Z" fill="white"/>
<path d="M25 41.1133C24.1903 41.1133 23.5352 41.7685 23.5352 42.5781V48.5352C23.5352 49.3448 24.1903 50 25 50C25.8097 50 26.4648 49.3448 26.4648 48.5352V42.5781C26.4648 41.7685 25.8097 41.1133 25 41.1133Z" fill="white"/>
<path d="M26.4648 48.5352V42.5781C26.4648 41.7685 25.8097 41.1133 25 41.1133V50C25.8097 50 26.4648 49.3448 26.4648 48.5352Z" fill="white"/>
<path d="M25 0C24.1903 0 23.5352 0.655176 23.5352 1.46484V7.42188C23.5352 8.23154 24.1903 8.88672 25 8.88672C25.8097 8.88672 26.4648 8.23154 26.4648 7.42188V1.46484C26.4648 0.655176 25.8097 0 25 0Z" fill="white"/>
<path d="M26.4648 7.42188V1.46484C26.4648 0.655176 25.8097 0 25 0V8.88672C25.8097 8.88672 26.4648 8.23154 26.4648 7.42188Z" fill="white"/>
</svg>
