<svg width="151" height="151" viewBox="0 0 151 151" fill="none" xmlns="http://www.w3.org/2000/svg">
<path d="M141.764 144.035H9.23589C5.35698 144.035 2.21191 140.89 2.21191 137.011V13.9546C2.21191 10.0746 5.35698 6.93066 9.23589 6.93066H141.764C145.644 6.93066 148.788 10.0746 148.788 13.9546V137.011C148.788 140.89 145.643 144.035 141.764 144.035V144.035Z" fill="#F4F4F4"/>
<path d="M141.764 6.93066H131.442C135.321 6.93066 138.466 10.0746 138.466 13.9546V137.011C138.466 140.89 135.321 144.035 131.442 144.035H141.764C145.643 144.035 148.788 140.89 148.788 137.011V13.9546C148.788 10.0746 145.643 6.93066 141.764 6.93066V6.93066Z" fill="#E8E8E8"/>
<path d="M2.21191 33.3158H148.788V13.9546C148.788 10.0746 145.643 6.93066 141.764 6.93066H9.23589C5.35698 6.93066 2.21191 10.0746 2.21191 13.9546V33.3158Z" fill="#7CD685"/>
<path d="M141.764 6.93066H131.442C135.321 6.93066 138.466 10.0746 138.466 13.9546V33.3158H148.788V13.9546C148.788 10.0746 145.643 6.93066 141.764 6.93066V6.93066Z" fill="#E35567"/>
<path d="M25.0119 20.1226C25.0119 22.9981 22.6813 25.3298 19.8058 25.3298C16.9304 25.3298 14.5986 22.9981 14.5986 20.1226C14.5986 17.2471 16.9304 14.9165 19.8058 14.9165C22.6813 14.9165 25.0119 17.2471 25.0119 20.1226Z" fill="#2CAB72"/>
<path d="M42.6369 20.1226C42.6369 22.9981 40.3052 25.3298 37.4297 25.3298C34.5542 25.3298 32.2237 22.9981 32.2237 20.1226C32.2237 17.2471 34.5542 14.9165 37.4297 14.9165C40.3052 14.9165 42.6369 17.2471 42.6369 20.1226Z" fill="#F6D867"/>
<path d="M60.2608 20.1226C60.2608 22.9981 57.9303 25.3298 55.0548 25.3298C52.1793 25.3298 49.8476 22.9981 49.8476 20.1226C49.8476 17.2471 52.1793 14.9165 55.0548 14.9165C57.9303 14.9165 60.2608 17.2471 60.2608 20.1226Z" fill="#5994CE"/>
<path d="M105.864 129.19H45.1357C38.5322 129.19 33.1787 123.836 33.1787 117.233V71.4885C33.1787 64.885 38.5322 59.5315 45.1357 59.5315H105.864C112.468 59.5315 117.821 64.885 117.821 71.4885V117.233C117.821 123.836 112.468 129.19 105.864 129.19V129.19Z" fill="#9C9A9B"/>
<path d="M105.864 59.5315H94.5098C101.113 59.5315 106.467 64.885 106.467 71.4885V117.233C106.467 123.836 101.113 129.19 94.5098 129.19H105.864C112.468 129.19 117.821 123.836 117.821 117.233V71.4885C117.821 64.885 112.468 59.5315 105.864 59.5315V59.5315Z" fill="#858384"/>
<path d="M97.6191 59.5316H53.3809V52.9327C53.3809 50.0884 55.6861 47.782 58.5305 47.782H92.4684C95.3128 47.782 97.6191 50.0884 97.6191 52.9327V59.5316Z" fill="#495663"/>
<path d="M92.4695 47.782H83.4249C86.2692 47.782 88.5745 50.0884 88.5745 52.9316V59.5316H97.6191V52.9316C97.6191 50.0884 95.3139 47.782 92.4695 47.782Z" fill="#3A444F"/>
<path d="M27.2238 20.1226C27.2238 16.0317 23.8967 12.7046 19.8058 12.7046C15.715 12.7046 12.3867 16.0317 12.3867 20.1226C12.3867 24.2135 15.715 27.5417 19.8047 27.5417C23.8956 27.5417 27.2238 24.2135 27.2238 20.1226ZM19.8058 23.1179C18.1538 23.1179 16.8105 21.7734 16.8105 20.1226C16.8105 18.4717 18.1538 17.1284 19.8047 17.1284C21.4567 17.1284 22.8 18.4717 22.8 20.1226C22.8 21.7734 21.4567 23.1179 19.8058 23.1179Z" fill="black"/>
<path d="M37.4297 27.5417C41.5206 27.5417 44.8489 24.2135 44.8489 20.1226C44.8489 16.0317 41.5206 12.7046 37.4297 12.7046C33.34 12.7046 30.0117 16.0317 30.0117 20.1226C30.0117 24.2135 33.3388 27.5417 37.4297 27.5417ZM37.4297 17.1284C39.0817 17.1284 40.425 18.4717 40.425 20.1226C40.425 21.7734 39.0817 23.1179 37.4297 23.1179C35.7789 23.1179 34.4356 21.7734 34.4356 20.1226C34.4356 18.4717 35.7789 17.1284 37.4297 17.1284Z" fill="black"/>
<path d="M55.0548 27.5417C59.1445 27.5417 62.4728 24.2135 62.4728 20.1226C62.4728 16.0317 59.1445 12.7046 55.0548 12.7046C50.9639 12.7046 47.6357 16.0317 47.6357 20.1226C47.6357 24.2135 50.9639 27.5417 55.0548 27.5417ZM55.0548 17.1284C56.7057 17.1284 58.0489 18.4717 58.0489 20.1226C58.0489 21.7734 56.7057 23.1179 55.0548 23.1179C53.4028 23.1179 52.0595 21.7734 52.0595 20.1226C52.0595 18.4717 53.4028 17.1284 55.0548 17.1284Z" fill="black"/>
<path d="M79.531 22.3345H133.404C134.625 22.3345 135.616 21.3449 135.616 20.1226C135.616 18.9014 134.625 17.9106 133.404 17.9106H79.531C78.3087 17.9106 77.3191 18.9014 77.3191 20.1226C77.3191 21.3449 78.3087 22.3345 79.531 22.3345V22.3345Z" fill="black"/>
<path d="M150.876 12.4351C150.863 12.3591 150.849 12.2842 150.834 12.2082C150.827 12.1713 150.82 12.1333 150.812 12.0953C149.949 7.89146 146.22 4.71875 141.764 4.71875H9.23589C4.14388 4.71875 0 8.86148 0 13.9546V137.011C0 142.104 4.14388 146.247 9.23589 146.247H141.764C146.856 146.247 151 142.103 151 137.011V13.9546C151 13.4374 150.957 12.9305 150.876 12.4351V12.4351ZM141.764 141.823H9.23589C6.58275 141.823 4.42383 139.664 4.42383 137.011V35.5277H16.7541C17.9764 35.5277 18.966 34.537 18.966 33.3158C18.966 32.0935 17.9764 31.1039 16.7541 31.1039H4.42383V13.9546C4.42383 11.3015 6.58275 9.14258 9.23589 9.14258H141.764C143.92 9.14258 145.749 10.5676 146.36 12.525C146.365 12.5445 146.371 12.563 146.377 12.5814C146.394 12.639 146.409 12.6955 146.424 12.7531C146.43 12.7727 146.434 12.7922 146.439 12.8118C146.453 12.8694 146.467 12.9282 146.478 12.9858C146.502 13.1033 146.522 13.2231 146.537 13.3429C146.543 13.3832 146.547 13.4236 146.551 13.4639C146.568 13.6252 146.576 13.7887 146.576 13.9546V31.1039H25.0119C23.7907 31.1039 22.8 32.0935 22.8 33.3158C22.8 34.537 23.7907 35.5277 25.0119 35.5277H146.576V137.011C146.576 139.664 144.417 141.823 141.764 141.823V141.823Z" fill="black"/>
<path d="M49.0642 92.6779C49.9282 93.542 51.3279 93.5408 52.1919 92.6779L56.5259 88.3428L60.861 92.6779C61.7251 93.542 63.1248 93.5408 63.9888 92.6779C64.8528 91.8139 64.8528 90.413 63.9888 89.549L59.6549 85.215L63.9888 80.8811C64.8528 80.017 64.8528 78.6162 63.9888 77.7521C63.1248 76.8893 61.7239 76.8893 60.861 77.7521L56.5259 82.0873L52.1919 77.7521C51.3279 76.8893 49.927 76.8893 49.0642 77.7521C48.2001 78.6162 48.2001 80.017 49.0642 80.8811L53.3981 85.215L49.0642 89.549C48.2001 90.413 48.2001 91.8139 49.0642 92.6779V92.6779Z" fill="black"/>
<path d="M87.0112 92.6779C87.8752 93.542 89.2749 93.5408 90.1389 92.6779L94.4729 88.3428L98.808 92.6779C99.6721 93.542 101.072 93.5408 101.936 92.6779C102.8 91.8139 102.8 90.413 101.936 89.549L97.6018 85.215L101.936 80.8811C102.8 80.017 102.8 78.6162 101.936 77.7521C101.072 76.8893 99.6709 76.8893 98.808 77.7521L94.4729 82.0873L90.1389 77.7521C89.2749 76.8893 87.874 76.8893 87.0112 77.7521C86.1471 78.6162 86.1471 80.017 87.0112 80.8811L91.3451 85.215L87.0112 89.549C86.1471 90.413 86.1471 91.8139 87.0112 92.6779V92.6779Z" fill="black"/>
<path d="M55.299 110.824H95.701C96.9222 110.824 97.9129 109.834 97.9129 108.612C97.9129 107.391 96.9222 106.4 95.701 106.4H55.299C54.0779 106.4 53.0871 107.391 53.0871 108.612C53.0871 109.834 54.0779 110.824 55.299 110.824V110.824Z" fill="black"/>
<path d="M105.864 57.3197H99.8311V52.9327C99.8311 48.873 96.5282 45.5701 92.4695 45.5701H58.5305C54.4718 45.5701 51.1689 48.873 51.1689 52.9327V57.3197H45.1357C37.3226 57.3197 30.9668 63.6767 30.9668 71.4886V117.233C30.9668 125.045 37.3226 131.402 45.1357 131.402H84.4467C85.6679 131.402 86.6586 130.411 86.6586 129.19C86.6586 127.967 85.6679 126.978 84.4467 126.978H45.1357C39.7626 126.978 35.3906 122.606 35.3906 117.233V71.4886C35.3906 66.1155 39.7626 61.7435 45.1357 61.7435H105.864C111.237 61.7435 115.609 66.1155 115.609 71.4886V117.233C115.609 122.606 111.237 126.978 105.864 126.978H92.7034C91.4822 126.978 90.4915 127.967 90.4915 129.19C90.4915 130.411 91.4822 131.402 92.7034 131.402H105.864C113.677 131.402 120.033 125.045 120.033 117.233V71.4886C120.033 63.6767 113.677 57.3197 105.864 57.3197V57.3197ZM55.5928 57.3197V52.9327C55.5928 51.3118 56.9107 49.9939 58.5305 49.9939H92.4684C94.0893 49.9939 95.4072 51.3118 95.4072 52.9327V57.3197H55.5928Z" fill="black"/>
</svg>
